<svg width="400" height="40" viewBox="0 0 400 40" fill="none" xmlns="http://www.w3.org/2000/svg">
<rect width="400" height="40" fill="white"/>
<path d="M28.8333 30.8768V13.8768M28.8333 30.8768H31.6666M28.8333 30.8768H21.75M28.8333 13.8768C28.8333 10.7472 26.2963 8.21015 23.1666 8.21015H17.5C14.3704 8.21015 11.8333 10.7472 11.8333 13.8768V25.2101C11.8333 27.8525 13.6419 30.0725 16.0888 30.6997M28.8333 13.8768H33.3795C34.0994 13.8768 34.7922 14.1508 35.3174 14.6431L39.2711 18.3498C39.8425 18.8854 40.1666 19.6336 40.1666 20.4168V28.0435C40.1666 29.6083 38.8981 30.8768 37.3333 30.8768M37.3333 30.8768C37.3333 32.4416 36.0648 33.7101 34.5 33.7101C32.9352 33.7101 31.6666 32.4416 31.6666 30.8768M37.3333 30.8768C37.3333 29.312 36.0648 28.0435 34.5 28.0435C32.9352 28.0435 31.6666 29.312 31.6666 30.8768M21.75 30.8768C21.75 32.4416 20.4814 33.7101 18.9166 33.7101C17.3518 33.7101 16.0833 32.4416 16.0833 30.8768C16.0833 30.8173 16.0851 30.7583 16.0888 30.6997M21.75 30.8768C21.75 29.312 20.4814 28.0435 18.9166 28.0435C17.4113 28.0435 16.1802 29.2174 16.0888 30.6997" stroke="#47474F" stroke-width="1.5"/>
<path d="M23.1666 15.2934H20.3332" stroke="#47474F" stroke-width="1.5" stroke-linecap="round" stroke-linejoin="round"/>
<path d="M23.1667 20.9601H17.5" stroke="#47474F" stroke-width="1.5" stroke-linecap="round" stroke-linejoin="round"/>
</svg>
