<svg width="28" height="28" viewBox="0 0 28 28" fill="none" xmlns="http://www.w3.org/2000/svg">
<g id="Icon/ business 2">
<path id="Vector" d="M22.1668 2.33325H24.5002C25.1445 2.33325 25.6668 2.85559 25.6668 3.49992V5.83325M24.5002 3.49992C15.235 10.9565 10.4326 12.965 2.3335 13.9999M21.0002 11.6666V23.3333C21.0002 24.6219 22.0448 25.6666 23.3335 25.6666C24.6222 25.6666 25.6668 24.6219 25.6668 23.3333V11.6666C25.6668 10.3779 24.6222 9.33325 23.3335 9.33325C22.0448 9.33325 21.0002 10.3779 21.0002 11.6666ZM2.3335 20.9999L2.3335 23.3333C2.3335 24.6219 3.37817 25.6666 4.66683 25.6666C5.95549 25.6666 7.00016 24.6219 7.00016 23.3333L7.00016 20.9999C7.00016 19.7113 5.95549 18.6666 4.66683 18.6666C3.37817 18.6666 2.3335 19.7113 2.3335 20.9999ZM11.6668 16.3333V23.3333C11.6668 24.6219 12.7115 25.6666 14.0002 25.6666C15.2888 25.6666 16.3335 24.6219 16.3335 23.3333V16.3333C16.3335 15.0446 15.2888 13.9999 14.0002 13.9999C12.7115 13.9999 11.6668 15.0446 11.6668 16.3333Z" stroke="white" stroke-width="1.5" stroke-linecap="round" stroke-linejoin="round"/>
</g>
</svg>
