<svg width="34" height="34" viewBox="0 0 34 34" fill="none" xmlns="http://www.w3.org/2000/svg">
<g id="fluent:checkmark-starburst-24-filled">
<path id="Vector" d="M13.9344 2.8815C14.0931 2.93533 14.2489 3.0005 14.4005 3.07417L16.2181 3.9695C16.4614 4.08925 16.7289 4.15152 17.0001 4.15152C17.2713 4.15152 17.5388 4.08925 17.7821 3.9695L19.5997 3.07417C20.5266 2.61822 21.5967 2.54909 22.5746 2.88196C23.5525 3.21484 24.3582 3.92247 24.8144 4.84925L24.9193 5.07875L25.0085 5.31533L25.6602 7.23208C25.8373 7.75342 26.2467 8.16142 26.7666 8.3385L28.6848 8.99017C29.2095 9.16868 29.69 9.45709 30.0944 9.83614C30.4987 10.2152 30.8175 10.6761 31.0295 11.1882C31.2415 11.7003 31.3418 12.2517 31.3237 12.8057C31.3056 13.3596 31.1695 13.9033 30.9245 14.4004L30.0306 16.218C29.9109 16.4613 29.8486 16.7288 29.8486 17C29.8486 17.2712 29.9109 17.5387 30.0306 17.782L30.9245 19.5996C31.1693 20.0967 31.3052 20.6402 31.3231 21.194C31.3411 21.7478 31.2408 22.299 31.0288 22.8109C30.8168 23.3228 30.4981 23.7836 30.0939 24.1626C29.6897 24.5415 29.2093 24.8299 28.6848 25.0084L26.7666 25.6601C26.51 25.7476 26.277 25.8929 26.0854 26.0847C25.8938 26.2766 25.7488 26.5098 25.6616 26.7665L25.0085 28.6847C24.83 29.2092 24.5416 29.6896 24.1627 30.0938C23.7837 30.498 23.3229 30.8167 22.811 31.0287C22.2991 31.2407 21.7479 31.341 21.1941 31.323C20.6403 31.305 20.0968 31.1692 19.5997 30.9244L17.7821 30.0305C17.5388 29.9108 17.2713 29.8485 17.0001 29.8485C16.7289 29.8485 16.4614 29.9108 16.2181 30.0305L14.4005 30.9244C13.9034 31.1692 13.3599 31.305 12.8061 31.323C12.2523 31.341 11.7011 31.2407 11.1892 31.0287C10.6773 30.8167 10.2165 30.498 9.83755 30.0938C9.45861 29.6896 9.17024 29.2092 8.99169 28.6847L8.34003 26.7665C8.25235 26.5098 8.10686 26.2766 7.91478 26.085C7.7227 25.8934 7.48916 25.7485 7.23219 25.6615L5.31545 25.0084C4.79082 24.83 4.31028 24.5418 3.90592 24.1629C3.50156 23.784 3.18268 23.3232 2.97056 22.8113C2.75844 22.2994 2.65797 21.7481 2.67586 21.1943C2.69374 20.6404 2.82957 20.0968 3.07428 19.5996L3.96961 17.782C4.08936 17.5387 4.15163 17.2712 4.15163 17C4.15163 16.7288 4.08936 16.4613 3.96961 16.218L3.07428 14.4004C2.82957 13.9032 2.69374 13.3596 2.67586 12.8058C2.65797 12.2519 2.75844 11.7006 2.97056 11.1887C3.18268 10.6768 3.50156 10.216 3.90592 9.83712C4.31028 9.45824 4.79082 9.16998 5.31545 8.99159L7.23219 8.33992C7.4892 8.25243 7.72264 8.10702 7.91449 7.91493C8.10634 7.72283 8.25145 7.4892 8.33861 7.23208L8.99028 5.31533C9.15501 4.83082 9.41359 4.38351 9.75124 3.99896C10.0889 3.61441 10.499 3.30015 10.9581 3.07413C11.4173 2.84811 11.9164 2.71477 12.4271 2.68172C12.9378 2.64867 13.45 2.71655 13.9344 2.8815ZM21.9145 12.7061L14.2376 20.3844L11.4411 17.0269C11.3531 16.9159 11.2437 16.8237 11.1194 16.7556C10.9952 16.6875 10.8586 16.6449 10.7177 16.6304C10.5767 16.6159 10.4343 16.6297 10.2988 16.6711C10.1633 16.7124 10.0374 16.7804 9.92859 16.8711C9.81975 16.9618 9.73015 17.0733 9.66506 17.1992C9.59997 17.325 9.5607 17.4626 9.54957 17.6038C9.53844 17.7451 9.55567 17.8871 9.60024 18.0216C9.64481 18.1561 9.71583 18.2803 9.80911 18.3869L13.3508 22.6369C13.4452 22.7503 13.5622 22.8428 13.6944 22.9084C13.8265 22.9741 13.9709 23.0115 14.1183 23.0183C14.2657 23.0251 14.4129 23.0012 14.5505 22.9479C14.6881 22.8947 14.8131 22.8134 14.9176 22.7092L23.4176 14.2092C23.522 14.1119 23.6057 13.9946 23.6638 13.8643C23.7219 13.7339 23.7531 13.5932 23.7556 13.4506C23.7581 13.3079 23.7319 13.1662 23.6784 13.0339C23.625 12.9016 23.5455 12.7814 23.4446 12.6805C23.3437 12.5796 23.2235 12.5001 23.0912 12.4467C22.9589 12.3932 22.8172 12.367 22.6745 12.3695C22.5319 12.372 22.3912 12.4032 22.2608 12.4613C22.1305 12.5194 22.0132 12.6031 21.9159 12.7075L21.9145 12.7061Z" fill="#09F9E3"/>
</g>
</svg>
