<svg width="17" height="18" viewBox="0 0 17 18" fill="none" xmlns="http://www.w3.org/2000/svg">
<path id="Union" fill-rule="evenodd" clip-rule="evenodd" d="M4.61463 0H10.5378C10.5432 1.5399 10.5443 3.07987 10.5411 4.61993C10.5408 4.79948 10.5517 4.9284 10.5738 5.0067C10.6509 5.28053 10.8741 5.50305 11.1489 5.5827C11.2201 5.60325 11.324 5.61353 11.4605 5.61353C13.3031 5.61383 15.1464 5.6139 16.9905 5.61375C16.993 5.61375 16.9953 5.61472 16.9971 5.61645C16.9988 5.61818 16.9998 5.62053 16.9998 5.62298C16.9998 8.51243 16.9989 11.4025 16.9973 14.2931C16.9973 14.6833 16.764 15.021 16.3884 15.1288C16.3181 15.149 16.2172 15.1592 16.0858 15.1592C12.313 15.1594 8.54013 15.1595 4.76718 15.1594C4.60263 15.1594 4.48233 15.1484 4.40628 15.1265C4.13448 15.0487 3.91376 14.8262 3.83523 14.5532C3.81408 14.4796 3.80351 14.368 3.80351 14.2184C3.80336 9.75082 3.80328 5.28323 3.80328 0.815625C3.80328 0.365175 4.17836 0.035775 4.61463 0ZM11.6929 5.01502C11.4288 4.9365 11.2137 4.71465 11.1358 4.44802C11.1153 4.37767 11.1049 4.27522 11.1048 4.14067C11.1043 2.77732 11.1043 1.41405 11.1048 0.0508488C11.1048 0.0487488 11.1031 0.0416238 11.0998 0.0294738C11.0988 0.0249738 11.0988 0.0196488 11.0998 0.0134988C11.1 0.0122648 11.1006 0.0111182 11.1014 0.0101722C11.1022 0.00922625 11.1033 0.00851361 11.1045 0.00810467C11.1057 0.00769572 11.107 0.00760461 11.1083 0.00784034C11.1095 0.00807606 11.1107 0.00863046 11.1117 0.00944881L16.9818 5.04067C16.9914 5.04892 16.9899 5.05312 16.9773 5.05327C15.3636 5.06152 13.751 5.0613 12.1395 5.0526C11.9222 5.0514 11.7733 5.03887 11.6929 5.01502ZM1.60256 18H13.2182C13.5663 17.9714 13.8657 17.7467 13.969 17.4155C13.9941 17.3351 14.0078 17.2061 14.0102 17.0285C14.0138 16.7474 14.0142 16.4666 14.0115 16.1861C14.0115 16.1838 14.0106 16.1816 14.009 16.18C14.0082 16.1792 14.0072 16.1785 14.0062 16.1781C14.0052 16.1777 14.0041 16.1775 14.003 16.1775H3.96461C3.77126 16.1775 3.63191 16.1663 3.54656 16.144C3.20298 16.0538 2.92016 15.7331 2.92016 15.3563V2.84985C2.92016 2.84746 2.91921 2.84517 2.91752 2.84349C2.91583 2.8418 2.91354 2.84085 2.91116 2.84085C2.52671 2.84055 2.14278 2.84055 1.75938 2.84085C1.61613 2.841 1.50701 2.85142 1.43201 2.87213C1.10531 2.96257 0.816406 3.28095 0.816406 3.63375V17.0795C0.816406 17.5939 1.08371 17.9258 1.60256 18Z" fill="white" fill-opacity="0.5"/>
</svg>
