<svg width="26" height="26" viewBox="0 0 26 26" fill="none" xmlns="http://www.w3.org/2000/svg">
<g id="Group">
<path id="Vector" d="M13.0003 17.6666C6.28029 17.6666 5.09029 10.9699 4.88029 5.65695C4.82079 4.17995 4.79163 3.44028 5.34696 2.75778C5.90113 2.07412 6.56496 1.96212 7.89379 1.73812C9.58175 1.46147 11.2898 1.32606 13.0003 1.33328C15.0816 1.33328 16.7955 1.51645 18.1068 1.73812C19.4356 1.96212 20.0995 2.07412 20.6548 2.75778C21.2101 3.44145 21.1798 4.17995 21.1215 5.65695C20.9115 10.9688 19.7215 17.6666 13.0015 17.6666H13.0003Z" stroke="white" stroke-width="1.5"/>
<path id="Vector_2" d="M11.8335 8.33325L13.5835 6.58325V11.2499" stroke="white" stroke-width="1.8" stroke-linecap="round" stroke-linejoin="round"/>
<path id="Vector_3" d="M21.1668 4.83325L22.274 5.20192C23.429 5.58692 24.0065 5.77942 24.3367 6.23792C24.6668 6.69642 24.6668 7.30542 24.6668 8.52225V8.60742C24.6668 9.61075 24.6668 10.1136 24.4253 10.5243C24.1838 10.9349 23.744 11.1788 22.8667 11.6676L19.4168 13.5833M4.8335 4.83325L3.72633 5.20192C2.57133 5.58692 1.99383 5.77942 1.66366 6.23792C1.3335 6.69642 1.3335 7.30658 1.3335 8.52225V8.60742C1.3335 9.61075 1.3335 10.1136 1.575 10.5243C1.8165 10.9349 2.25633 11.1788 3.13366 11.6676L6.5835 13.5833" stroke="white" stroke-width="1.8"/>
<path id="Vector_4" d="M13 17.6665V21.1665" stroke="white" stroke-width="1.7" stroke-linecap="round"/>
<path id="Vector_5" d="M17.0837 24.6667H8.91699L9.31366 22.688C9.3665 22.4236 9.50928 22.1857 9.71772 22.0147C9.92615 21.8437 10.1874 21.7502 10.457 21.75H15.5437C15.8133 21.7502 16.0745 21.8437 16.2829 22.0147C16.4914 22.1857 16.6341 22.4236 16.687 22.688L17.0837 24.6667Z" stroke="white" stroke-width="1.8" stroke-linecap="round" stroke-linejoin="round"/>
<path id="Vector_6" d="M20 24.6665H6" stroke="white" stroke-width="1.8" stroke-linecap="round"/>
</g>
</svg>
