<svg width="50" height="49" viewBox="0 0 50 49" fill="none" xmlns="http://www.w3.org/2000/svg">
<g id="huge-icon/shipping and delivery/outline/fast delivery">
<path id="Vector" d="M29.1665 35.852V11.352M29.1665 35.852H33.3332M29.1665 35.852H18.7498M29.1665 11.352C29.1665 6.84164 25.4355 3.1853 20.8332 3.1853H12.4998C7.89746 3.1853 4.1665 6.84164 4.1665 11.352V27.6853C4.1665 31.4935 6.82623 34.6928 10.4245 35.5967M29.1665 11.352H35.8521C36.9107 11.352 37.9296 11.7468 38.7019 12.4564L44.5163 17.7983C45.3565 18.5702 45.8332 19.6486 45.8332 20.7773V31.7686C45.8332 34.0238 43.9677 35.852 41.6665 35.852M41.6665 35.852C41.6665 38.1071 39.801 39.9353 37.4998 39.9353C35.1987 39.9353 33.3332 38.1071 33.3332 35.852M41.6665 35.852C41.6665 33.5968 39.801 31.7686 37.4998 31.7686C35.1987 31.7686 33.3332 33.5968 33.3332 35.852M18.7498 35.852C18.7498 38.1071 16.8844 39.9353 14.5832 39.9353C12.282 39.9353 10.4165 38.1071 10.4165 35.852C10.4165 35.7662 10.4192 35.6811 10.4245 35.5967M18.7498 35.852C18.7498 33.5968 16.8844 31.7686 14.5832 31.7686C12.3695 31.7686 10.559 33.4605 10.4245 35.5967" stroke="#47474F" stroke-width="1.5"/>
<path id="Vector 1980" d="M20.8332 13.3933H16.6665" stroke="#47474F" stroke-width="2" stroke-linecap="round" stroke-linejoin="round"/>
<path id="Vector 1981" d="M20.8333 21.5603H12.5" stroke="#47474F" stroke-width="2" stroke-linecap="round" stroke-linejoin="round"/>
</g>
</svg>
