<svg width="24" height="24" viewBox="0 0 24 24" fill="none" xmlns="http://www.w3.org/2000/svg">
<path id="Union" fill-rule="evenodd" clip-rule="evenodd" d="M11.916 0H12.0981C18.6533 0.119228 23.8501 5.24472 24 11.8202V12.1844C23.8455 18.689 18.7346 23.8256 12.2277 24H11.7869C5.22593 23.8282 0.103896 18.6334 0 12.084V11.9019C0.0613269 9.0009 1.00422 6.45699 2.82864 4.27015C5.08946 1.56 8.40538 0.0624875 11.916 0ZM22.0428 11.9989C22.0428 10.68 21.7831 9.37408 21.2783 8.15563C20.7736 6.93718 20.0339 5.83008 19.1013 4.8975C18.1688 3.96494 17.0617 3.2252 15.8432 2.72051C14.6248 2.2158 13.3188 1.95604 12 1.95604C9.33647 1.95604 6.78205 3.01411 4.89866 4.8975C3.01528 6.78091 1.95718 9.33533 1.95718 11.9989C1.95718 14.6624 3.01528 17.2168 4.89866 19.1002C6.78205 20.9836 9.33647 22.0417 12 22.0417C13.3188 22.0417 14.6248 21.7819 15.8432 21.2772C17.0617 20.7725 18.1688 20.0328 19.1013 19.1002C20.0339 18.1676 20.7736 17.0605 21.2783 15.8421C21.7831 14.6236 22.0428 13.3177 22.0428 11.9989ZM11.8466 7.70607C9.80627 7.57074 9.64101 4.75974 11.6178 4.40013C12.7829 4.18811 13.8678 4.92498 13.7713 6.17176C13.6926 7.19157 12.8346 7.77163 11.8466 7.70607ZM14.7796 19.8828V18.0475C14.7796 18.0451 14.7791 18.0426 14.7781 18.0404C14.7775 18.0389 14.7767 18.0375 14.7758 18.0362C14.7752 18.0355 14.7747 18.0349 14.774 18.0343C14.7723 18.0325 14.7702 18.0311 14.7679 18.0302C14.7657 18.0292 14.7632 18.0288 14.7608 18.0288H13.6961C13.6936 18.0288 13.6912 18.0283 13.6889 18.0273C13.6866 18.0264 13.6846 18.025 13.6828 18.0233C13.682 18.0224 13.6812 18.0215 13.6805 18.0205C13.6798 18.0195 13.6792 18.0183 13.6787 18.0171C13.6778 18.0149 13.6773 18.0124 13.6773 18.01V9.0763C13.6773 9.07329 13.6766 9.07035 13.6753 9.06771C13.6744 9.06599 13.6732 9.0644 13.6718 9.06301C13.6683 9.05949 13.6635 9.05751 13.6585 9.05751H9.06672C9.06174 9.05751 9.05695 9.05949 9.05343 9.06301C9.04991 9.06653 9.04792 9.0713 9.04792 9.0763V11.0036C9.04792 11.0051 9.04811 11.0067 9.04848 11.0082C9.04871 11.0091 9.04901 11.0099 9.04935 11.0108C9.05028 11.013 9.05167 11.0151 9.05343 11.0169C9.05519 11.0186 9.05725 11.02 9.05953 11.0209C9.06114 11.0216 9.06282 11.022 9.06455 11.0222C9.06526 11.0223 9.06597 11.0224 9.06672 11.0224H10.2847C10.2897 11.0224 10.2945 11.0243 10.298 11.0279C10.3015 11.0314 10.3035 11.0362 10.3035 11.0412V18.01C10.3035 18.0124 10.303 18.0149 10.3021 18.0171C10.3012 18.0194 10.2998 18.0215 10.298 18.0233C10.2963 18.025 10.2942 18.0264 10.2919 18.0273C10.2896 18.0283 10.2872 18.0288 10.2847 18.0288H8.99963C8.99715 18.0288 8.99472 18.0292 8.99244 18.0302C8.99015 18.0311 8.98809 18.0325 8.98633 18.0343C8.98457 18.036 8.98319 18.0381 8.98225 18.0404C8.98132 18.0426 8.98083 18.0451 8.98083 18.0475V19.882C8.98083 19.8845 8.98132 19.887 8.98225 19.8892C8.98319 19.8915 8.98457 19.8936 8.98633 19.8953C8.98809 19.8971 8.99015 19.8985 8.99244 19.8994C8.99472 19.9003 8.99715 19.9008 8.99963 19.9008L14.7608 19.9016C14.7632 19.9016 14.7657 19.9011 14.7679 19.9002C14.7702 19.8992 14.7723 19.8978 14.774 19.8961C14.7749 19.8953 14.7756 19.8944 14.7763 19.8935C14.777 19.8924 14.7776 19.8912 14.7781 19.89C14.7791 19.8877 14.7796 19.8853 14.7796 19.8828Z" fill="white" fill-opacity="0.5"/>
</svg>
