<svg width="28" height="28" viewBox="0 0 28 28" fill="none" xmlns="http://www.w3.org/2000/svg">
<g id="Icon/  Mentoring">
<path id="Vector" d="M16.5201 18.5828L19.0249 22.9212C19.5082 23.7582 19.2214 24.8285 18.3844 25.3117C17.5474 25.795 16.4771 25.5082 15.9938 24.6712L12.898 19.3091M22.6967 5.635L23.1237 4.04131M25.03 9.67647L26.6237 10.1035M9.44777 20.0202L21.8363 17.1835C23.3666 16.833 24.1211 15.1019 23.3362 13.7423L18.3288 5.0692C17.5438 3.70964 15.6673 3.49754 14.5987 4.64759L5.94777 13.958L9.44777 20.0202ZM6.23947 14.4632L9.15614 19.515C9.63938 20.352 9.3526 21.4223 8.51559 21.9055C7.67858 22.3888 6.6083 22.102 6.12505 21.265L3.20838 16.2132C2.72513 15.3761 3.01191 14.3059 3.84892 13.8226C4.68594 13.3394 5.75622 13.6261 6.23947 14.4632Z" stroke="white" stroke-width="1.5" stroke-linecap="round" stroke-linejoin="round"/>
</g>
</svg>
