<svg width="20" height="24" viewBox="0 0 20 24" fill="none" xmlns="http://www.w3.org/2000/svg">
<path id="Union" fill-rule="evenodd" clip-rule="evenodd" d="M5.89975 0H6.06381C6.55499 0.0704269 7.00287 0.265297 7.44534 0.457832C8.15437 0.766365 8.84963 1.06888 9.68724 0.84375C9.74991 0.826881 9.85405 0.796394 9.98895 0.756912C10.9488 0.475937 13.4652 -0.260651 13.6674 0.212814C13.8399 0.616402 13.6093 1.32468 13.4752 1.72172C13.0383 3.0136 12.2415 4.28767 11.2285 5.2064C11.2264 5.2083 11.2247 5.2107 11.2238 5.21338C11.2235 5.21441 11.2232 5.21546 11.223 5.21654L11.2229 5.21784C11.2228 5.21915 11.2229 5.22045 11.2231 5.22176C11.2233 5.2229 11.2236 5.22402 11.224 5.2251C11.2245 5.22633 11.2251 5.22752 11.2259 5.22862L11.2265 5.22945C11.2273 5.23041 11.2281 5.2313 11.2291 5.23208C11.2298 5.23267 11.2306 5.2332 11.2314 5.23366L11.2332 5.23453C12.45 5.75484 13.5483 6.56438 14.5121 7.46297C15.9024 8.76015 17.0788 10.2288 18.0413 11.8688C19.6468 14.6039 21.0507 18.8184 18.5096 21.5245C16.6163 23.5411 13.3299 23.9583 10.734 24H9.8785C9.28409 23.9803 8.69037 23.9506 8.09725 23.9109C4.9102 23.6972 1.0313 22.6336 0.174409 19.0153C-0.301345 17.0048 0.258775 14.8087 1.09973 12.9778C2.06003 10.8872 3.36021 9.03561 5.0002 7.42312C5.81722 6.6197 6.73975 5.88938 7.76303 5.36673C7.76633 5.36494 7.76917 5.36236 7.77123 5.3592C7.77324 5.35602 7.77448 5.35238 7.7747 5.34863C7.77493 5.34487 7.7742 5.34109 7.77255 5.33771C7.77091 5.3343 7.76843 5.33139 7.76537 5.32922C6.57239 4.51172 5.68785 3.27704 5.23691 1.90782C5.01334 1.22813 4.8652 0.115311 5.89975 0ZM9.24756 17.4675C8.73427 17.3362 8.31331 16.9852 8.15254 16.4756C7.85115 15.5231 6.69379 15.968 7.01862 16.8422C7.41051 17.8969 8.16284 18.4397 9.24472 18.69C9.25186 18.6917 9.25749 18.6945 9.26157 18.6987C9.26674 18.7039 9.26939 18.7112 9.26958 18.7205C9.27127 18.8076 9.26866 18.8955 9.26605 18.9823C9.25768 19.2617 9.24967 19.5295 9.38631 19.7227C9.59862 20.0227 10.0313 20.0574 10.2863 19.7855C10.4776 19.5821 10.4685 19.2667 10.4603 18.9817V18.9812C10.4583 18.911 10.4563 18.8425 10.4574 18.7781C10.4577 18.7619 10.466 18.753 10.4822 18.7514C11.9358 18.6253 13.1911 17.6498 12.8986 16.0556C12.6821 14.8767 11.5093 14.4337 10.4855 14.2177C10.4655 14.2136 10.4555 14.2012 10.4555 14.1806V11.9995C10.4555 11.9814 10.4644 11.9741 10.4822 11.9775C11.0246 12.0839 11.4582 12.3056 11.6592 12.8297C11.7193 12.9866 11.7641 13.0841 11.7938 13.1222C12.1805 13.6186 12.9891 13.1934 12.8241 12.5967C12.5236 11.512 11.565 10.9102 10.4841 10.7845C10.4763 10.7836 10.4692 10.7799 10.4639 10.774C10.4614 10.7712 10.4594 10.768 10.458 10.7645C10.4565 10.7608 10.4556 10.7568 10.4555 10.7527C10.4554 10.6932 10.457 10.6285 10.4587 10.5618V10.561C10.4639 10.3451 10.4697 10.1075 10.4204 9.95155C10.2652 9.46124 9.60146 9.39093 9.35115 9.84093C9.24564 10.0308 9.25836 10.352 9.26853 10.6084V10.6101C9.27054 10.6607 9.27246 10.7087 9.27333 10.7527C9.27365 10.7701 9.26505 10.7805 9.24756 10.7836C8.54581 10.9055 7.86987 11.1848 7.42877 11.7684C6.87662 12.4997 6.84847 13.6331 7.54692 14.3119C8.00066 14.7525 8.62647 14.993 9.23254 15.128C9.24371 15.1305 9.25369 15.1368 9.26083 15.1457C9.26473 15.1506 9.26766 15.1561 9.26953 15.162C9.27109 15.1669 9.27191 15.172 9.27191 15.1772V17.4488C9.27191 17.4653 9.26381 17.4716 9.24756 17.4675ZM8.21397 13.1517C8.10521 12.4997 8.67238 12.0895 9.24802 11.9916C9.26395 11.9891 9.27191 11.9958 9.27191 12.0117V13.8867C9.27191 13.8951 9.26994 13.9009 9.26601 13.9042C9.26189 13.9076 9.25557 13.9082 9.2471 13.9059C8.8721 13.8094 8.28754 13.5947 8.21397 13.1517ZM10.4841 17.5589C11.0555 17.5144 11.6906 17.2125 11.7563 16.582C11.8364 15.8119 11.078 15.5794 10.4982 15.436C10.4931 15.4347 10.4878 15.4347 10.4827 15.4358C10.4776 15.437 10.4728 15.4392 10.4687 15.4425C10.4664 15.4443 10.4645 15.4463 10.4627 15.4485C10.4613 15.4504 10.46 15.4524 10.459 15.4546C10.4567 15.4593 10.4555 15.4644 10.4555 15.4697V17.5322C10.4555 17.5513 10.465 17.5602 10.4841 17.5589Z" fill="white" fill-opacity="0.5"/>
</svg>
