<svg width="28" height="28" viewBox="0 0 28 28" fill="none" xmlns="http://www.w3.org/2000/svg">
<g id="Icon/ User">
<path id="Vector" d="M17.9168 8.16667C17.9168 10.3298 16.1633 12.0833 14.0002 12.0833V13.5833C16.9917 13.5833 19.4168 11.1582 19.4168 8.16667H17.9168ZM14.0002 12.0833C11.837 12.0833 10.0835 10.3298 10.0835 8.16667H8.5835C8.5835 11.1582 11.0086 13.5833 14.0002 13.5833V12.0833ZM10.0835 8.16667C10.0835 6.00355 11.837 4.25 14.0002 4.25V2.75C11.0086 2.75 8.5835 5.17512 8.5835 8.16667H10.0835ZM14.0002 4.25C16.1633 4.25 17.9168 6.00355 17.9168 8.16667H19.4168C19.4168 5.17512 16.9917 2.75 14.0002 2.75V4.25ZM21.4168 20.4167C21.4168 21.1071 20.8376 21.9341 19.4395 22.6332C18.0862 23.3098 16.1641 23.75 14.0002 23.75V25.25C16.3465 25.25 18.5078 24.7761 20.1103 23.9748C21.6679 23.196 22.9168 21.9814 22.9168 20.4167H21.4168ZM14.0002 23.75C11.8362 23.75 9.91415 23.3098 8.56087 22.6332C7.16272 21.9341 6.5835 21.1071 6.5835 20.4167H5.0835C5.0835 21.9814 6.33244 23.196 7.89005 23.9748C9.49251 24.7761 11.6538 25.25 14.0002 25.25V23.75ZM6.5835 20.4167C6.5835 19.7262 7.16272 18.8992 8.56087 18.2001C9.91415 17.5235 11.8362 17.0833 14.0002 17.0833V15.5833C11.6538 15.5833 9.49251 16.0573 7.89005 16.8585C6.33244 17.6373 5.0835 18.852 5.0835 20.4167H6.5835ZM14.0002 17.0833C16.1641 17.0833 18.0862 17.5235 19.4395 18.2001C20.8376 18.8992 21.4168 19.7262 21.4168 20.4167H22.9168C22.9168 18.852 21.6679 17.6373 20.1103 16.8585C18.5078 16.0573 16.3465 15.5833 14.0002 15.5833V17.0833Z" fill="white"/>
</g>
</svg>
