<svg width="28" height="28" viewBox="0 0 28 28" fill="none" xmlns="http://www.w3.org/2000/svg">
<g id="Icon/ Shogirt">
<path id="Vector 1459" d="M23.3335 5.83325V12.2499" stroke="white" stroke-width="1.5" stroke-linecap="round"/>
<path id="Vector" d="M19.4165 8.16659V7.41659H17.9165V8.16659H19.4165ZM10.0832 8.16659V7.41659H8.58317V8.16659H10.0832ZM13.9998 2.33325L14.2632 1.63101C14.0934 1.56733 13.9063 1.56733 13.7365 1.63101L13.9998 2.33325ZM4.6665 5.83325L4.40316 5.13101C4.11043 5.24078 3.9165 5.52062 3.9165 5.83325C3.9165 6.14589 4.11043 6.42573 4.40316 6.5355L4.6665 5.83325ZM13.9998 9.33325L13.7365 10.0355C13.9063 10.0992 14.0934 10.0992 14.2632 10.0355L13.9998 9.33325ZM23.3332 5.83325L23.5965 6.5355C23.8892 6.42573 24.0832 6.14589 24.0832 5.83325C24.0832 5.52062 23.8892 5.24078 23.5965 5.13101L23.3332 5.83325ZM14.8294 19.8401L14.2961 19.3127H14.2961L14.8294 19.8401ZM16.6826 17.9661L17.2159 18.4935V18.4935L16.6826 17.9661ZM17.7775 17.6681L17.9891 16.9485L17.7775 17.6681ZM11.317 17.9661L11.8503 17.4387L11.317 17.9661ZM13.1703 19.8401L13.7036 19.3127L13.1703 19.8401ZM10.2222 17.6681L10.0106 16.9485H10.0106L10.2222 17.6681ZM22.5832 25.6666C22.5832 26.0808 22.919 26.4166 23.3332 26.4166C23.7474 26.4166 24.0832 26.0808 24.0832 25.6666H22.5832ZM3.9165 25.6666C3.9165 26.0808 4.25229 26.4166 4.6665 26.4166C5.08072 26.4166 5.4165 26.0808 5.4165 25.6666H3.9165ZM17.9165 8.16659V10.4999H19.4165V8.16659H17.9165ZM10.0832 10.4999V8.16659H8.58317V10.4999H10.0832ZM13.9998 14.4166C11.8367 14.4166 10.0832 12.663 10.0832 10.4999H8.58317C8.58317 13.4915 11.0083 15.9166 13.9998 15.9166V14.4166ZM17.9165 10.4999C17.9165 12.663 16.163 14.4166 13.9998 14.4166V15.9166C16.9914 15.9166 19.4165 13.4915 19.4165 10.4999H17.9165ZM13.7365 1.63101L4.40316 5.13101L4.92985 6.5355L14.2632 3.0355L13.7365 1.63101ZM14.2632 10.0355L23.5965 6.5355L23.0698 5.13101L13.7365 8.63101L14.2632 10.0355ZM13.7365 3.0355L23.0698 6.5355L23.5965 5.13101L14.2632 1.63101L13.7365 3.0355ZM14.2632 8.63101L4.92985 5.13101L4.40316 6.5355L13.7365 10.0355L14.2632 8.63101ZM15.3626 20.3675L17.2159 18.4935L16.1494 17.4387L14.2961 19.3127L15.3626 20.3675ZM17.5659 18.3876C20.7064 19.3111 22.5832 21.2986 22.5832 23.3333H24.0832C24.0832 20.3113 21.3939 17.9498 17.9891 16.9485L17.5659 18.3876ZM10.7838 18.4935L12.637 20.3675L13.7036 19.3127L11.8503 17.4387L10.7838 18.4935ZM5.4165 23.3333C5.4165 21.2986 7.29328 19.3111 10.4338 18.3876L10.0106 16.9485C6.60574 17.9498 3.9165 20.3113 3.9165 23.3333H5.4165ZM22.5832 23.3333V25.6666H24.0832V23.3333H22.5832ZM3.9165 23.3333V25.6666H5.4165V23.3333H3.9165ZM11.8503 17.4387C11.3859 16.9692 10.687 16.7496 10.0106 16.9485L10.4338 18.3876C10.5385 18.3568 10.6755 18.384 10.7838 18.4935L11.8503 17.4387ZM17.2159 18.4935C17.3242 18.384 17.4612 18.3568 17.5659 18.3876L17.9891 16.9485C17.3126 16.7496 16.6137 16.9692 16.1494 17.4387L17.2159 18.4935ZM14.2961 19.3127C14.133 19.4776 13.8667 19.4776 13.7036 19.3127L12.637 20.3675C13.3872 21.1261 14.6124 21.1261 15.3626 20.3675L14.2961 19.3127Z" fill="white"/>
</g>
</svg>
