<svg width="24" height="24" viewBox="0 0 24 24" fill="none" xmlns="http://www.w3.org/2000/svg">
<path id="image 10 (Traced)" fill-rule="evenodd" clip-rule="evenodd" d="M10.9936 0.0254236C10.5899 0.0682482 10.2416 0.114254 9.98854 0.158189C9.45679 0.2505 9.37203 0.267966 9.32139 0.295816C9.29274 0.311571 9.23582 0.324445 9.19493 0.324445C9.154 0.324445 9.0627 0.342812 8.99198 0.365229C8.92127 0.387677 8.77566 0.429451 8.6684 0.458081C8.56114 0.486711 8.45142 0.521463 8.42456 0.535297C8.39771 0.549102 8.32669 0.569629 8.26672 0.580883C8.20674 0.592137 8.15028 0.613324 8.14124 0.627939C8.13221 0.642584 8.10197 0.654648 8.07407 0.654738C8.04617 0.654858 7.98466 0.675115 7.9374 0.699753C7.89012 0.724422 7.83815 0.744589 7.82192 0.744589C7.80566 0.744589 7.74646 0.764845 7.69033 0.789604C7.63422 0.814362 7.54235 0.854876 7.48625 0.879635C7.43011 0.904393 7.37554 0.92465 7.36497 0.92465C7.32396 0.92465 6.45117 1.34053 6.41816 1.37582C6.40991 1.38465 6.33227 1.42498 6.24565 1.46543C6.15903 1.50592 6.08813 1.54934 6.08813 1.56195C6.08813 1.57455 6.07439 1.58487 6.05759 1.58487C5.99737 1.58487 5.06802 2.18142 5.06802 2.22007C5.06802 2.23385 5.05308 2.2451 5.03484 2.2451C5.0058 2.2451 4.7787 2.40718 4.73799 2.45697C4.72974 2.46706 4.70097 2.48764 4.67405 2.50274C4.62698 2.52915 4.45608 2.66509 4.31189 2.79087C4.27396 2.82394 4.18263 2.90037 4.10888 2.96069C3.93517 3.10285 3.10528 3.93293 2.96315 4.10669C2.90285 4.18046 2.82643 4.27181 2.79337 4.30974C2.66762 4.45397 2.53171 4.62491 2.50531 4.672C2.49022 4.69892 2.46963 4.72769 2.45955 4.73595C2.40978 4.77667 2.24773 5.00382 2.24773 5.03287C2.24773 5.05112 2.23648 5.06606 2.22271 5.06606C2.18406 5.06606 1.58766 5.99563 1.58766 6.05586C1.58766 6.07266 1.57734 6.08641 1.56474 6.08641C1.55214 6.08641 1.50872 6.15729 1.46825 6.24396C1.4278 6.3306 1.38748 6.40827 1.37866 6.41652C1.34338 6.44953 0.927592 7.32253 0.927592 7.36355C0.927592 7.37412 0.90734 7.4287 0.882587 7.48485C0.857835 7.54097 0.81733 7.63286 0.792578 7.68898C0.767825 7.74513 0.747573 7.80434 0.747573 7.82061C0.747573 7.83684 0.727411 7.88882 0.702748 7.93612C0.678116 7.98338 0.657864 8.0449 0.657744 8.07281C0.657654 8.10072 0.645592 8.13097 0.630951 8.14001C0.616339 8.14904 0.595157 8.20552 0.583906 8.26551C0.572655 8.3255 0.552133 8.39653 0.538331 8.42339C0.5245 8.45025 0.489756 8.56 0.461133 8.66729C0.43251 8.77457 0.390746 8.92021 0.368303 8.99095C0.345891 9.06168 0.327529 9.153 0.327529 9.19394C0.327529 9.23484 0.314658 9.29177 0.298906 9.32043C0.23875 9.42991 0.108266 10.2481 0.0273178 11.0231C-0.00910595 11.372 -0.00910595 12.6248 0.0273178 12.9738C0.0918546 13.5917 0.119908 13.7876 0.23791 14.4443C0.255702 14.5433 0.283155 14.6478 0.298906 14.6764C0.314658 14.7051 0.327529 14.762 0.327529 14.8029C0.327529 14.8438 0.345891 14.9352 0.368303 15.0059C0.390746 15.0766 0.43251 15.2223 0.461133 15.3296C0.489756 15.4368 0.5245 15.5466 0.538331 15.5734C0.552133 15.6003 0.572655 15.6713 0.583906 15.7313C0.595157 15.7913 0.616339 15.8478 0.630951 15.8568C0.645592 15.8659 0.657654 15.8961 0.657744 15.924C0.657864 15.9519 0.678116 16.0135 0.702748 16.0607C0.727411 16.108 0.747573 16.16 0.747573 16.1762C0.747573 16.2042 0.762905 16.2425 0.879017 16.5045C0.90575 16.5647 0.927592 16.6227 0.927592 16.6333C0.927592 16.6743 1.34338 17.5473 1.37866 17.5803C1.38748 17.5886 1.4278 17.6662 1.46825 17.7529C1.50872 17.8396 1.55214 17.9104 1.56474 17.9104C1.57734 17.9104 1.58766 17.9242 1.58766 17.941C1.58766 18.0012 2.18406 18.9308 2.22271 18.9308C2.23648 18.9308 2.24773 18.9457 2.24773 18.964C2.24773 18.993 2.40978 19.2202 2.45955 19.2609C2.46963 19.2691 2.49022 19.2979 2.50531 19.3248C2.53171 19.3719 2.66762 19.5429 2.79337 19.6871C2.82643 19.725 2.90285 19.8164 2.96315 19.8902C3.10528 20.0639 3.93517 20.894 4.10888 21.0361C4.18263 21.0965 4.27396 21.1729 4.31189 21.206C4.45608 21.3318 4.62698 21.4677 4.67405 21.4941C4.70097 21.5092 4.72974 21.5298 4.73799 21.5399C4.7787 21.5897 5.0058 21.7517 5.03484 21.7517C5.05308 21.7517 5.06802 21.763 5.06802 21.7768C5.06802 21.8154 5.99737 22.412 6.05759 22.412C6.07439 22.412 6.08813 22.4223 6.08813 22.4349C6.08813 22.4475 6.15903 22.4909 6.24565 22.5314C6.33227 22.5719 6.40991 22.6122 6.41816 22.621C6.45117 22.6563 7.32396 23.0722 7.36497 23.0722C7.37554 23.0722 7.43011 23.0924 7.48625 23.1172C7.54235 23.142 7.63422 23.1825 7.69033 23.2072C7.74646 23.232 7.80566 23.2523 7.82192 23.2523C7.83815 23.2523 7.89012 23.2724 7.9374 23.2971C7.98466 23.3217 8.04617 23.342 8.07407 23.3421C8.10197 23.3422 8.13221 23.3543 8.14124 23.3689C8.15028 23.3835 8.20674 23.4047 8.26672 23.416C8.32669 23.4272 8.39771 23.4477 8.42456 23.4615C8.45142 23.4754 8.56114 23.5101 8.6684 23.5388C8.77566 23.5674 8.92127 23.6092 8.99198 23.6316C9.0627 23.654 9.154 23.6724 9.19493 23.6724C9.23582 23.6724 9.29274 23.6853 9.32139 23.701C9.43084 23.7612 10.2488 23.8917 11.0236 23.9727C11.3725 24.0091 12.625 24.0091 12.9738 23.9727C13.5916 23.9081 13.7875 23.8801 14.444 23.762C14.543 23.7442 14.6475 23.7168 14.6761 23.701C14.7048 23.6853 14.7617 23.6724 14.8026 23.6724C14.8435 23.6724 14.9348 23.654 15.0055 23.6316C15.0762 23.6092 15.2218 23.5674 15.3291 23.5388C15.4364 23.5101 15.5461 23.4754 15.5729 23.4615C15.5998 23.4477 15.6708 23.4272 15.7308 23.416C15.7908 23.4047 15.8472 23.3835 15.8562 23.3689C15.8653 23.3543 15.8955 23.3422 15.9234 23.3421C15.9513 23.342 16.0128 23.3217 16.0601 23.2971C16.1074 23.2724 16.1593 23.2523 16.1756 23.2523C16.1918 23.2523 16.251 23.232 16.3072 23.2072C16.3633 23.1825 16.4551 23.142 16.5112 23.1172C16.5674 23.0924 16.622 23.0722 16.6325 23.0722C16.6735 23.0722 17.5463 22.6563 17.5793 22.621C17.5876 22.6122 17.6652 22.5719 17.7518 22.5314C17.8385 22.4909 17.9094 22.4475 17.9094 22.4349C17.9094 22.4223 17.9231 22.412 17.9399 22.412C18.0001 22.412 18.9295 21.8154 18.9295 21.7768C18.9295 21.763 18.9444 21.7517 18.9627 21.7517C18.9917 21.7517 19.2188 21.5897 19.2595 21.5399C19.2678 21.5298 19.2965 21.5092 19.3234 21.4941C19.3705 21.4677 19.5414 21.3318 19.6856 21.206C19.7235 21.1729 19.8149 21.0965 19.8886 21.0361C20.0623 20.894 20.8922 20.0639 21.0343 19.8902C21.0946 19.8164 21.1711 19.725 21.2041 19.6871C21.3299 19.5429 21.4658 19.3719 21.4922 19.3248C21.5073 19.2979 21.5279 19.2691 21.5379 19.2609C21.5877 19.2202 21.7498 18.993 21.7498 18.964C21.7498 18.9457 21.761 18.9308 21.7748 18.9308C21.8134 18.9308 22.4098 18.0012 22.4098 17.941C22.4098 17.9242 22.4202 17.9104 22.4328 17.9104C22.4454 17.9104 22.4888 17.8396 22.5292 17.7529C22.5697 17.6662 22.61 17.5886 22.6188 17.5803C22.6541 17.5473 23.0699 16.6743 23.0699 16.6333C23.0699 16.6227 23.0902 16.5681 23.1149 16.512C23.1397 16.4559 23.1802 16.364 23.2049 16.3079C23.2297 16.2517 23.2499 16.1925 23.2499 16.1762C23.2499 16.16 23.2701 16.108 23.2947 16.0607C23.3194 16.0135 23.3396 15.9519 23.3398 15.924C23.3398 15.8961 23.3519 15.8659 23.3665 15.8568C23.3812 15.8478 23.4023 15.7913 23.4136 15.7313C23.4248 15.6713 23.4454 15.6003 23.4592 15.5734C23.473 15.5466 23.5077 15.4368 23.5364 15.3296C23.565 15.2223 23.6067 15.0766 23.6292 15.0059C23.6516 14.9352 23.67 14.8438 23.67 14.8029C23.67 14.762 23.6828 14.7051 23.6986 14.6764C23.7264 14.6258 23.7438 14.5413 23.8362 14.0091C23.9327 13.4529 23.9982 12.7872 23.9992 12.351L24 11.9984H22.7999H21.5997L21.5978 12.0659C21.5805 12.6757 21.4701 13.6636 21.3891 13.9341C21.3742 13.9836 21.353 14.0849 21.3418 14.1592C21.3307 14.2334 21.3114 14.3077 21.299 14.3242C21.2866 14.3407 21.2666 14.4145 21.2544 14.4881C21.2422 14.5617 21.2224 14.6428 21.2102 14.6682C21.1981 14.6936 21.1654 14.7886 21.1375 14.8794C21.0854 15.049 21.0113 15.2492 20.9704 15.3305C20.9577 15.3558 20.9378 15.4198 20.9262 15.4727C20.9146 15.5256 20.8926 15.5767 20.8774 15.5861C20.8621 15.5955 20.8497 15.6237 20.8497 15.6488C20.8497 15.6739 20.7889 15.8167 20.7147 15.9662C20.6404 16.1157 20.5796 16.2564 20.5796 16.279C20.5796 16.3015 20.5676 16.3199 20.5529 16.3199C20.5382 16.3199 20.5168 16.3569 20.5055 16.4021C20.4942 16.4473 20.4758 16.4913 20.4648 16.4997C20.4537 16.5081 20.421 16.5589 20.3921 16.6125C20.3633 16.6662 20.316 16.7539 20.2871 16.8075C20.2582 16.8612 20.227 16.9118 20.2178 16.9201C20.2085 16.9284 20.1485 17.0229 20.0844 17.1302C20.0202 17.2375 19.9569 17.3297 19.9437 17.3352C19.9304 17.3408 19.9196 17.3644 19.9196 17.3877C19.9196 17.4112 19.907 17.4303 19.8916 17.4303C19.8762 17.4303 19.8561 17.4539 19.8469 17.4828C19.8377 17.5117 19.7996 17.5691 19.7621 17.6103C19.6596 17.7232 19.4995 17.9316 19.4995 17.9523C19.4995 17.9623 19.4759 17.995 19.447 18.0251C19.4182 18.0551 19.3068 18.1797 19.1995 18.3019C18.9505 18.5855 18.5843 18.9519 18.3007 19.2009C18.1786 19.3082 18.054 19.4196 18.024 19.4485C17.9939 19.4774 17.9612 19.501 17.9512 19.501C17.9305 19.501 17.7221 19.6611 17.6093 19.7636C17.5681 19.8011 17.5107 19.8393 17.4818 19.8484C17.453 19.8576 17.4293 19.8777 17.4293 19.8931C17.4293 19.9085 17.4102 19.9211 17.3868 19.9211C17.3634 19.9211 17.3398 19.932 17.3343 19.9452C17.3288 19.9585 17.2365 20.0218 17.1293 20.0859C17.022 20.1501 16.9275 20.2101 16.9192 20.2194C16.911 20.2287 16.8603 20.2599 16.8067 20.2887C16.7531 20.3176 16.6654 20.3649 16.6118 20.3938C16.5581 20.4227 16.5074 20.4554 16.4989 20.4664C16.4905 20.4775 16.4466 20.4958 16.4014 20.5072C16.3562 20.5185 16.3192 20.5399 16.3192 20.5546C16.3192 20.5693 16.3008 20.5813 16.2783 20.5813C16.2557 20.5813 16.1151 20.6421 15.9656 20.7164C15.8162 20.7907 15.6734 20.8514 15.6483 20.8514C15.6232 20.8514 15.595 20.8639 15.5856 20.8791C15.5761 20.8944 15.5251 20.9163 15.4722 20.928C15.4193 20.9396 15.3554 20.9595 15.3301 20.9722C15.2488 21.0131 15.0486 21.0872 14.879 21.1393C14.7883 21.1672 14.6933 21.1999 14.6679 21.2121C14.6425 21.2242 14.5615 21.2441 14.4879 21.2562C14.4142 21.2684 14.3405 21.2885 14.324 21.3009C14.3075 21.3133 14.2332 21.3325 14.159 21.3437C14.0847 21.3549 13.9835 21.3761 13.9339 21.391C13.4841 21.5258 12.2461 21.6181 11.5112 21.5717C10.8235 21.5282 10.3058 21.4636 10.0635 21.391C10.014 21.3761 9.91278 21.3549 9.83852 21.3437C9.76426 21.3325 9.69001 21.3133 9.6735 21.3009C9.657 21.2885 9.58325 21.2684 9.50963 21.2562C9.43603 21.2441 9.35502 21.2242 9.32961 21.2121C9.30423 21.1999 9.20921 21.1672 9.11845 21.1393C8.94887 21.0872 8.74869 21.0131 8.66741 20.9722C8.64212 20.9595 8.57815 20.9396 8.52525 20.928C8.47236 20.9163 8.42135 20.8944 8.41193 20.8791C8.40254 20.8639 8.37431 20.8514 8.3492 20.8514C8.32411 20.8514 8.18133 20.7907 8.03188 20.7164C7.88244 20.6421 7.74175 20.5813 7.71922 20.5813C7.69672 20.5813 7.6783 20.5693 7.6783 20.5546C7.6783 20.5399 7.6413 20.5185 7.59609 20.5072C7.55087 20.4958 7.50698 20.4775 7.49855 20.4664C7.49012 20.4554 7.43935 20.4227 7.38574 20.3938C7.33212 20.3649 7.24439 20.3176 7.19078 20.2887C7.13716 20.2599 7.08651 20.2287 7.07826 20.2194C7.06998 20.2101 6.97547 20.1501 6.86821 20.0859C6.76095 20.0218 6.66869 19.9585 6.6632 19.9452C6.65768 19.932 6.63407 19.9211 6.6107 19.9211C6.58729 19.9211 6.56818 19.9085 6.56818 19.8931C6.56818 19.8777 6.54454 19.8576 6.51568 19.8484C6.48678 19.8393 6.42942 19.8011 6.38816 19.7636C6.27535 19.6611 6.06695 19.501 6.04631 19.501C6.03631 19.501 6.00355 19.4774 5.97349 19.4485C5.94346 19.4196 5.81891 19.3082 5.69677 19.2009C5.41318 18.9519 5.04696 18.5855 4.798 18.3019C4.69073 18.1797 4.57936 18.0551 4.55047 18.0251C4.52161 17.995 4.49796 17.9623 4.49796 17.9523C4.49796 17.9316 4.3379 17.7232 4.23541 17.6103C4.19793 17.5691 4.15977 17.5117 4.15059 17.4828C4.14141 17.4539 4.1213 17.4303 4.10591 17.4303C4.09052 17.4303 4.07792 17.4112 4.07792 17.3877C4.07792 17.3644 4.06709 17.3408 4.05383 17.3352C4.0406 17.3297 3.97729 17.2375 3.91314 17.1302C3.84903 17.0229 3.78899 16.9284 3.77972 16.9201C3.77045 16.9118 3.73925 16.8612 3.71038 16.8075C3.68149 16.7539 3.63423 16.6662 3.60537 16.6125C3.57648 16.5589 3.5438 16.5081 3.53273 16.4997C3.52166 16.4913 3.50333 16.4473 3.49199 16.4021C3.48065 16.3569 3.45932 16.3199 3.44461 16.3199C3.42988 16.3199 3.41785 16.3015 3.41785 16.279C3.41785 16.2564 3.3571 16.1157 3.28284 15.9662C3.20858 15.8167 3.14782 15.6739 3.14782 15.6488C3.14782 15.6237 3.13537 15.5955 3.12013 15.5861C3.10489 15.5767 3.08293 15.5256 3.07132 15.4727C3.0597 15.4198 3.03978 15.3558 3.02709 15.3305C2.98623 15.2492 2.91209 15.049 2.86 14.8794C2.83213 14.7886 2.7994 14.6936 2.78728 14.6682C2.77513 14.6428 2.75526 14.5617 2.74311 14.4881C2.73093 14.4145 2.71086 14.3407 2.69847 14.3242C2.68611 14.3077 2.66684 14.2334 2.65568 14.1592C2.64452 14.0849 2.62328 13.9836 2.60843 13.9341C2.53585 13.6918 2.47122 13.174 2.42775 12.4861C2.3813 11.751 2.47362 10.5127 2.60843 10.0628C2.62328 10.0132 2.64452 9.91196 2.65568 9.83769C2.66684 9.76341 2.68611 9.68913 2.69847 9.67263C2.71086 9.65612 2.73093 9.58236 2.74311 9.50871C2.75526 9.4351 2.77513 9.35407 2.78728 9.32865C2.7994 9.30326 2.83213 9.20822 2.86 9.11744C2.91209 8.94782 2.98623 8.74759 3.02709 8.6663C3.03978 8.641 3.0597 8.57702 3.07132 8.52411C3.08293 8.4712 3.10489 8.42018 3.12013 8.41076C3.13537 8.40137 3.14782 8.37313 3.14782 8.34801C3.14782 8.32292 3.20858 8.1801 3.28284 8.03062C3.3571 7.88114 3.41785 7.74042 3.41785 7.71788C3.41785 7.69538 3.42988 7.67695 3.44461 7.67695C3.45932 7.67695 3.48065 7.63995 3.49199 7.59472C3.50333 7.5495 3.52166 7.50559 3.53273 7.49716C3.5438 7.48873 3.57648 7.43795 3.60537 7.38432C3.63423 7.33069 3.68149 7.24294 3.71038 7.18931C3.73928 7.13569 3.77045 7.08503 3.77972 7.07678C3.78899 7.06849 3.84903 6.97396 3.91314 6.86667C3.97729 6.75939 4.0406 6.66711 4.05383 6.66161C4.06709 6.65609 4.07792 6.63247 4.07792 6.6091C4.07792 6.58569 4.09052 6.56657 4.10591 6.56657C4.1213 6.56657 4.14141 6.54292 4.15059 6.51405C4.15977 6.48518 4.19793 6.42777 4.23541 6.38651C4.3379 6.27367 4.49796 6.06522 4.49796 6.04457C4.49796 6.03458 4.52161 6.00181 4.55047 5.97174C4.57936 5.9417 4.69073 5.81713 4.798 5.69495C5.04696 5.4113 5.41318 5.04499 5.69677 4.79597C5.81891 4.68868 5.94346 4.57728 5.97349 4.54838C6.00355 4.51951 6.03631 4.49587 6.04631 4.49587C6.06695 4.49587 6.27535 4.33576 6.38816 4.23325C6.42942 4.19576 6.48678 4.15759 6.51568 4.14841C6.54457 4.13922 6.56818 4.11912 6.56818 4.10372C6.56818 4.08833 6.58729 4.07572 6.6107 4.07572C6.63407 4.07572 6.65768 4.06489 6.6632 4.05162C6.66869 4.03839 6.76095 3.97507 6.86821 3.91091C6.97547 3.84677 7.06998 3.78672 7.07826 3.77745C7.08651 3.76818 7.13716 3.737 7.19078 3.7081C7.24439 3.6792 7.33212 3.63196 7.38574 3.60306C7.43935 3.57416 7.49012 3.54148 7.49855 3.53041C7.50698 3.51933 7.55087 3.501 7.59609 3.48965C7.6413 3.47831 7.6783 3.45697 7.6783 3.44227C7.6783 3.42753 7.69672 3.4155 7.71922 3.4155C7.74175 3.4155 7.88244 3.35473 8.03188 3.28045C8.18133 3.20618 8.32411 3.14541 8.3492 3.14541C8.37431 3.14541 8.40254 3.13295 8.41193 3.11771C8.42135 3.10246 8.47236 3.08049 8.52525 3.06888C8.57815 3.05727 8.64212 3.03734 8.66741 3.02465C8.74869 2.98377 8.94887 2.90962 9.11845 2.85752C9.20921 2.82964 9.30423 2.7969 9.32961 2.78477C9.35502 2.77262 9.43603 2.75275 9.50963 2.7406C9.58325 2.72841 9.657 2.70834 9.6735 2.69594C9.69001 2.68358 9.76426 2.66431 9.83852 2.65315C9.91278 2.64198 10.014 2.62074 10.0635 2.60588C10.5112 2.47171 11.7078 2.38207 12.4649 2.426C13.0537 2.46015 13.5161 2.50373 13.5568 2.52885C13.5723 2.53848 13.6771 2.55955 13.7895 2.57563C13.902 2.59175 14.075 2.62473 14.174 2.64892C14.273 2.67311 14.4199 2.70843 14.5006 2.72739L14.6471 2.76185L15.6016 1.80746C16.6436 0.765626 16.6022 0.825256 16.3342 0.750651C16.2682 0.732255 16.1467 0.697022 16.0642 0.672354C15.9053 0.624818 15.6906 0.562216 15.4191 0.48428C15.3283 0.458231 15.2001 0.42573 15.1341 0.412015C15.0681 0.398331 14.923 0.36604 14.8116 0.340261C14.2028 0.199363 13.8289 0.130309 13.4239 0.0839735C13.2919 0.0688784 13.0624 0.0427695 12.9138 0.0259638C12.6104 -0.00836789 11.3158 -0.00875807 10.9936 0.0254236ZM15.9592 8.26215C13.1291 11.0929 10.8052 13.4089 10.7948 13.4089C10.7844 13.4089 9.95253 12.5851 8.94626 11.5783C7.93998 10.5714 7.09924 9.74765 7.07787 9.74765C7.05654 9.74765 6.66755 10.1201 6.21348 10.5753L5.38786 11.403L8.09174 14.1075L10.7957 16.812L16.8037 10.8026L22.8117 4.79315L21.9734 3.95427C21.5123 3.49289 21.1283 3.1154 21.1199 3.1154C21.1115 3.1154 18.7892 5.43144 15.9592 8.26215Z" fill="white"/>
</svg>
