<svg width="25" height="24" viewBox="0 0 25 24" fill="none" xmlns="http://www.w3.org/2000/svg">
<path id="image 10 (Traced)" fill-rule="evenodd" clip-rule="evenodd" d="M11.4936 0.0254236C11.0899 0.0682482 10.7416 0.114254 10.4885 0.158189C9.95679 0.2505 9.87203 0.267966 9.82139 0.295816C9.79274 0.311571 9.73582 0.324445 9.69493 0.324445C9.654 0.324445 9.5627 0.342812 9.49198 0.365229C9.42127 0.387677 9.27566 0.429451 9.1684 0.458081C9.06114 0.486711 8.95142 0.521463 8.92456 0.535297C8.89771 0.549102 8.82669 0.569629 8.76672 0.580883C8.70674 0.592137 8.65028 0.613324 8.64124 0.627939C8.63221 0.642584 8.60197 0.654648 8.57407 0.654738C8.54617 0.654858 8.48466 0.675115 8.4374 0.699753C8.39012 0.724422 8.33815 0.744589 8.32192 0.744589C8.30566 0.744589 8.24646 0.764845 8.19033 0.789604C8.13422 0.814362 8.04235 0.854876 7.98625 0.879635C7.93011 0.904393 7.87554 0.92465 7.86497 0.92465C7.82396 0.92465 6.95117 1.34053 6.91816 1.37582C6.90991 1.38465 6.83227 1.42498 6.74565 1.46543C6.65903 1.50592 6.58813 1.54934 6.58813 1.56195C6.58813 1.57455 6.57439 1.58487 6.55759 1.58487C6.49737 1.58487 5.56802 2.18142 5.56802 2.22007C5.56802 2.23385 5.55308 2.2451 5.53484 2.2451C5.5058 2.2451 5.2787 2.40718 5.23799 2.45697C5.22974 2.46706 5.20097 2.48764 5.17405 2.50274C5.12698 2.52915 4.95608 2.66509 4.81189 2.79087C4.77396 2.82394 4.68263 2.90037 4.60888 2.96069C4.43517 3.10285 3.60528 3.93293 3.46315 4.10669C3.40285 4.18046 3.32643 4.27181 3.29337 4.30974C3.16762 4.45397 3.03171 4.62491 3.00531 4.672C2.99022 4.69892 2.96963 4.72769 2.95955 4.73595C2.90978 4.77667 2.74773 5.00382 2.74773 5.03287C2.74773 5.05112 2.73648 5.06606 2.72271 5.06606C2.68406 5.06606 2.08766 5.99563 2.08766 6.05586C2.08766 6.07266 2.07734 6.08641 2.06474 6.08641C2.05214 6.08641 2.00872 6.15729 1.96825 6.24396C1.9278 6.3306 1.88748 6.40827 1.87866 6.41652C1.84338 6.44953 1.42759 7.32253 1.42759 7.36355C1.42759 7.37412 1.40734 7.4287 1.38259 7.48485C1.35783 7.54097 1.31733 7.63286 1.29258 7.68898C1.26783 7.74513 1.24757 7.80434 1.24757 7.82061C1.24757 7.83684 1.22741 7.88882 1.20275 7.93612C1.17812 7.98338 1.15786 8.0449 1.15774 8.07281C1.15765 8.10072 1.14559 8.13097 1.13095 8.14001C1.11634 8.14904 1.09516 8.20552 1.08391 8.26551C1.07265 8.3255 1.05213 8.39653 1.03833 8.42339C1.0245 8.45025 0.989756 8.56 0.961133 8.66729C0.93251 8.77457 0.890746 8.92021 0.868303 8.99095C0.845891 9.06168 0.827529 9.153 0.827529 9.19394C0.827529 9.23484 0.814658 9.29177 0.798906 9.32043C0.73875 9.42991 0.608266 10.2481 0.527318 11.0231C0.490894 11.372 0.490894 12.6248 0.527318 12.9738C0.591855 13.5917 0.619908 13.7876 0.73791 14.4443C0.755702 14.5433 0.783155 14.6478 0.798906 14.6764C0.814658 14.7051 0.827529 14.762 0.827529 14.8029C0.827529 14.8438 0.845891 14.9352 0.868303 15.0059C0.890746 15.0766 0.93251 15.2223 0.961133 15.3296C0.989756 15.4368 1.0245 15.5466 1.03833 15.5734C1.05213 15.6003 1.07265 15.6713 1.08391 15.7313C1.09516 15.7913 1.11634 15.8478 1.13095 15.8568C1.14559 15.8659 1.15765 15.8961 1.15774 15.924C1.15786 15.9519 1.17812 16.0135 1.20275 16.0607C1.22741 16.108 1.24757 16.16 1.24757 16.1762C1.24757 16.2042 1.2629 16.2425 1.37902 16.5045C1.40575 16.5647 1.42759 16.6227 1.42759 16.6333C1.42759 16.6743 1.84338 17.5473 1.87866 17.5803C1.88748 17.5886 1.9278 17.6662 1.96825 17.7529C2.00872 17.8396 2.05214 17.9104 2.06474 17.9104C2.07734 17.9104 2.08766 17.9242 2.08766 17.941C2.08766 18.0012 2.68406 18.9308 2.72271 18.9308C2.73648 18.9308 2.74773 18.9457 2.74773 18.964C2.74773 18.993 2.90978 19.2202 2.95955 19.2609C2.96963 19.2691 2.99022 19.2979 3.00531 19.3248C3.03171 19.3719 3.16762 19.5429 3.29337 19.6871C3.32643 19.725 3.40285 19.8164 3.46315 19.8902C3.60528 20.0639 4.43517 20.894 4.60888 21.0361C4.68263 21.0965 4.77396 21.1729 4.81189 21.206C4.95608 21.3318 5.12698 21.4677 5.17405 21.4941C5.20097 21.5092 5.22974 21.5298 5.23799 21.5399C5.2787 21.5897 5.5058 21.7517 5.53484 21.7517C5.55308 21.7517 5.56802 21.763 5.56802 21.7768C5.56802 21.8154 6.49737 22.412 6.55759 22.412C6.57439 22.412 6.58813 22.4223 6.58813 22.4349C6.58813 22.4475 6.65903 22.4909 6.74565 22.5314C6.83227 22.5719 6.90991 22.6122 6.91816 22.621C6.95117 22.6563 7.82396 23.0722 7.86497 23.0722C7.87554 23.0722 7.93011 23.0924 7.98625 23.1172C8.04235 23.142 8.13422 23.1825 8.19033 23.2072C8.24646 23.232 8.30566 23.2523 8.32192 23.2523C8.33815 23.2523 8.39012 23.2724 8.4374 23.2971C8.48466 23.3217 8.54617 23.342 8.57407 23.3421C8.60197 23.3422 8.63221 23.3543 8.64124 23.3689C8.65028 23.3835 8.70674 23.4047 8.76672 23.416C8.82669 23.4272 8.89771 23.4477 8.92456 23.4615C8.95142 23.4754 9.06114 23.5101 9.1684 23.5388C9.27566 23.5674 9.42127 23.6092 9.49198 23.6316C9.5627 23.654 9.654 23.6724 9.69493 23.6724C9.73582 23.6724 9.79274 23.6853 9.82139 23.701C9.93084 23.7612 10.7488 23.8917 11.5236 23.9727C11.8725 24.0091 13.125 24.0091 13.4738 23.9727C14.0916 23.9081 14.2875 23.8801 14.944 23.762C15.043 23.7442 15.1475 23.7168 15.1761 23.701C15.2048 23.6853 15.2617 23.6724 15.3026 23.6724C15.3435 23.6724 15.4348 23.654 15.5055 23.6316C15.5762 23.6092 15.7218 23.5674 15.8291 23.5388C15.9364 23.5101 16.0461 23.4754 16.0729 23.4615C16.0998 23.4477 16.1708 23.4272 16.2308 23.416C16.2908 23.4047 16.3472 23.3835 16.3562 23.3689C16.3653 23.3543 16.3955 23.3422 16.4234 23.3421C16.4513 23.342 16.5128 23.3217 16.5601 23.2971C16.6074 23.2724 16.6593 23.2523 16.6756 23.2523C16.6918 23.2523 16.751 23.232 16.8072 23.2072C16.8633 23.1825 16.9551 23.142 17.0112 23.1172C17.0674 23.0924 17.122 23.0722 17.1325 23.0722C17.1735 23.0722 18.0463 22.6563 18.0793 22.621C18.0876 22.6122 18.1652 22.5719 18.2518 22.5314C18.3385 22.4909 18.4094 22.4475 18.4094 22.4349C18.4094 22.4223 18.4231 22.412 18.4399 22.412C18.5001 22.412 19.4295 21.8154 19.4295 21.7768C19.4295 21.763 19.4444 21.7517 19.4627 21.7517C19.4917 21.7517 19.7188 21.5897 19.7595 21.5399C19.7678 21.5298 19.7965 21.5092 19.8234 21.4941C19.8705 21.4677 20.0414 21.3318 20.1856 21.206C20.2235 21.1729 20.3149 21.0965 20.3886 21.0361C20.5623 20.894 21.3922 20.0639 21.5343 19.8902C21.5946 19.8164 21.6711 19.725 21.7041 19.6871C21.8299 19.5429 21.9658 19.3719 21.9922 19.3248C22.0073 19.2979 22.0279 19.2691 22.0379 19.2609C22.0877 19.2202 22.2498 18.993 22.2498 18.964C22.2498 18.9457 22.261 18.9308 22.2748 18.9308C22.3134 18.9308 22.9098 18.0012 22.9098 17.941C22.9098 17.9242 22.9202 17.9104 22.9328 17.9104C22.9454 17.9104 22.9888 17.8396 23.0292 17.7529C23.0697 17.6662 23.11 17.5886 23.1188 17.5803C23.1541 17.5473 23.5699 16.6743 23.5699 16.6333C23.5699 16.6227 23.5902 16.5681 23.6149 16.512C23.6397 16.4559 23.6802 16.364 23.7049 16.3079C23.7297 16.2517 23.7499 16.1925 23.7499 16.1762C23.7499 16.16 23.7701 16.108 23.7947 16.0607C23.8194 16.0135 23.8396 15.9519 23.8398 15.924C23.8398 15.8961 23.8519 15.8659 23.8665 15.8568C23.8812 15.8478 23.9023 15.7913 23.9136 15.7313C23.9248 15.6713 23.9454 15.6003 23.9592 15.5734C23.973 15.5466 24.0077 15.4368 24.0364 15.3296C24.065 15.2223 24.1067 15.0766 24.1292 15.0059C24.1516 14.9352 24.17 14.8438 24.17 14.8029C24.17 14.762 24.1828 14.7051 24.1986 14.6764C24.2264 14.6258 24.2438 14.5413 24.3362 14.0091C24.4327 13.4529 24.4982 12.7872 24.4992 12.351L24.5 11.9984H23.2999H22.0997L22.0978 12.0659C22.0805 12.6757 21.9701 13.6636 21.8891 13.9341C21.8742 13.9836 21.853 14.0849 21.8418 14.1592C21.8307 14.2334 21.8114 14.3077 21.799 14.3242C21.7866 14.3407 21.7666 14.4145 21.7544 14.4881C21.7422 14.5617 21.7224 14.6428 21.7102 14.6682C21.6981 14.6936 21.6654 14.7886 21.6375 14.8794C21.5854 15.049 21.5113 15.2492 21.4704 15.3305C21.4577 15.3558 21.4378 15.4198 21.4262 15.4727C21.4146 15.5256 21.3926 15.5767 21.3774 15.5861C21.3621 15.5955 21.3497 15.6237 21.3497 15.6488C21.3497 15.6739 21.2889 15.8167 21.2147 15.9662C21.1404 16.1157 21.0796 16.2564 21.0796 16.279C21.0796 16.3015 21.0676 16.3199 21.0529 16.3199C21.0382 16.3199 21.0168 16.3569 21.0055 16.4021C20.9942 16.4473 20.9758 16.4913 20.9648 16.4997C20.9537 16.5081 20.921 16.5589 20.8921 16.6125C20.8633 16.6662 20.816 16.7539 20.7871 16.8075C20.7582 16.8612 20.727 16.9118 20.7178 16.9201C20.7085 16.9284 20.6485 17.0229 20.5844 17.1302C20.5202 17.2375 20.4569 17.3297 20.4437 17.3352C20.4304 17.3408 20.4196 17.3644 20.4196 17.3877C20.4196 17.4112 20.407 17.4303 20.3916 17.4303C20.3762 17.4303 20.3561 17.4539 20.3469 17.4828C20.3377 17.5117 20.2996 17.5691 20.2621 17.6103C20.1596 17.7232 19.9995 17.9316 19.9995 17.9523C19.9995 17.9623 19.9759 17.995 19.947 18.0251C19.9182 18.0551 19.8068 18.1797 19.6995 18.3019C19.4505 18.5855 19.0843 18.9519 18.8007 19.2009C18.6786 19.3082 18.554 19.4196 18.524 19.4485C18.4939 19.4774 18.4612 19.501 18.4512 19.501C18.4305 19.501 18.2221 19.6611 18.1093 19.7636C18.0681 19.8011 18.0107 19.8393 17.9818 19.8484C17.953 19.8576 17.9293 19.8777 17.9293 19.8931C17.9293 19.9085 17.9102 19.9211 17.8868 19.9211C17.8634 19.9211 17.8398 19.932 17.8343 19.9452C17.8288 19.9585 17.7365 20.0218 17.6293 20.0859C17.522 20.1501 17.4275 20.2101 17.4192 20.2194C17.411 20.2287 17.3603 20.2599 17.3067 20.2887C17.2531 20.3176 17.1654 20.3649 17.1118 20.3938C17.0581 20.4227 17.0074 20.4554 16.9989 20.4664C16.9905 20.4775 16.9466 20.4958 16.9014 20.5072C16.8562 20.5185 16.8192 20.5399 16.8192 20.5546C16.8192 20.5693 16.8008 20.5813 16.7783 20.5813C16.7557 20.5813 16.6151 20.6421 16.4656 20.7164C16.3162 20.7907 16.1734 20.8514 16.1483 20.8514C16.1232 20.8514 16.095 20.8639 16.0856 20.8791C16.0761 20.8944 16.0251 20.9163 15.9722 20.928C15.9193 20.9396 15.8554 20.9595 15.8301 20.9722C15.7488 21.0131 15.5486 21.0872 15.379 21.1393C15.2883 21.1672 15.1933 21.1999 15.1679 21.2121C15.1425 21.2242 15.0615 21.2441 14.9879 21.2562C14.9142 21.2684 14.8405 21.2885 14.824 21.3009C14.8075 21.3133 14.7332 21.3325 14.659 21.3437C14.5847 21.3549 14.4835 21.3761 14.4339 21.391C13.9841 21.5258 12.7461 21.6181 12.0112 21.5717C11.3235 21.5282 10.8058 21.4636 10.5635 21.391C10.514 21.3761 10.4128 21.3549 10.3385 21.3437C10.2643 21.3325 10.19 21.3133 10.1735 21.3009C10.157 21.2885 10.0833 21.2684 10.0096 21.2562C9.93603 21.2441 9.85502 21.2242 9.82961 21.2121C9.80423 21.1999 9.70921 21.1672 9.61845 21.1393C9.44887 21.0872 9.24869 21.0131 9.16741 20.9722C9.14212 20.9595 9.07815 20.9396 9.02525 20.928C8.97236 20.9163 8.92135 20.8944 8.91193 20.8791C8.90254 20.8639 8.87431 20.8514 8.8492 20.8514C8.82411 20.8514 8.68133 20.7907 8.53188 20.7164C8.38244 20.6421 8.24175 20.5813 8.21922 20.5813C8.19672 20.5813 8.1783 20.5693 8.1783 20.5546C8.1783 20.5399 8.1413 20.5185 8.09609 20.5072C8.05087 20.4958 8.00698 20.4775 7.99855 20.4664C7.99012 20.4554 7.93935 20.4227 7.88574 20.3938C7.83212 20.3649 7.74439 20.3176 7.69078 20.2887C7.63716 20.2599 7.58651 20.2287 7.57826 20.2194C7.56998 20.2101 7.47547 20.1501 7.36821 20.0859C7.26095 20.0218 7.16869 19.9585 7.1632 19.9452C7.15768 19.932 7.13407 19.9211 7.1107 19.9211C7.08729 19.9211 7.06818 19.9085 7.06818 19.8931C7.06818 19.8777 7.04454 19.8576 7.01568 19.8484C6.98678 19.8393 6.92942 19.8011 6.88816 19.7636C6.77535 19.6611 6.56695 19.501 6.54631 19.501C6.53631 19.501 6.50355 19.4774 6.47349 19.4485C6.44346 19.4196 6.31891 19.3082 6.19677 19.2009C5.91318 18.9519 5.54696 18.5855 5.298 18.3019C5.19073 18.1797 5.07936 18.0551 5.05047 18.0251C5.02161 17.995 4.99796 17.9623 4.99796 17.9523C4.99796 17.9316 4.8379 17.7232 4.73541 17.6103C4.69793 17.5691 4.65977 17.5117 4.65059 17.4828C4.64141 17.4539 4.6213 17.4303 4.60591 17.4303C4.59052 17.4303 4.57792 17.4112 4.57792 17.3877C4.57792 17.3644 4.56709 17.3408 4.55383 17.3352C4.5406 17.3297 4.47729 17.2375 4.41314 17.1302C4.34903 17.0229 4.28899 16.9284 4.27972 16.9201C4.27045 16.9118 4.23925 16.8612 4.21038 16.8075C4.18149 16.7539 4.13423 16.6662 4.10537 16.6125C4.07648 16.5589 4.0438 16.5081 4.03273 16.4997C4.02166 16.4913 4.00333 16.4473 3.99199 16.4021C3.98065 16.3569 3.95932 16.3199 3.94461 16.3199C3.92988 16.3199 3.91785 16.3015 3.91785 16.279C3.91785 16.2564 3.8571 16.1157 3.78284 15.9662C3.70858 15.8167 3.64782 15.6739 3.64782 15.6488C3.64782 15.6237 3.63537 15.5955 3.62013 15.5861C3.60489 15.5767 3.58293 15.5256 3.57132 15.4727C3.5597 15.4198 3.53978 15.3558 3.52709 15.3305C3.48623 15.2492 3.41209 15.049 3.36 14.8794C3.33213 14.7886 3.2994 14.6936 3.28728 14.6682C3.27513 14.6428 3.25526 14.5617 3.24311 14.4881C3.23093 14.4145 3.21086 14.3407 3.19847 14.3242C3.18611 14.3077 3.16684 14.2334 3.15568 14.1592C3.14452 14.0849 3.12328 13.9836 3.10843 13.9341C3.03585 13.6918 2.97122 13.174 2.92775 12.4861C2.8813 11.751 2.97362 10.5127 3.10843 10.0628C3.12328 10.0132 3.14452 9.91196 3.15568 9.83769C3.16684 9.76341 3.18611 9.68913 3.19847 9.67263C3.21086 9.65612 3.23093 9.58236 3.24311 9.50871C3.25526 9.4351 3.27513 9.35407 3.28728 9.32865C3.2994 9.30326 3.33213 9.20822 3.36 9.11744C3.41209 8.94782 3.48623 8.74759 3.52709 8.6663C3.53978 8.641 3.5597 8.57702 3.57132 8.52411C3.58293 8.4712 3.60489 8.42018 3.62013 8.41076C3.63537 8.40137 3.64782 8.37313 3.64782 8.34801C3.64782 8.32292 3.70858 8.1801 3.78284 8.03062C3.8571 7.88114 3.91785 7.74042 3.91785 7.71788C3.91785 7.69538 3.92988 7.67695 3.94461 7.67695C3.95932 7.67695 3.98065 7.63995 3.99199 7.59472C4.00333 7.5495 4.02166 7.50559 4.03273 7.49716C4.0438 7.48873 4.07648 7.43795 4.10537 7.38432C4.13423 7.33069 4.18149 7.24294 4.21038 7.18931C4.23928 7.13569 4.27045 7.08503 4.27972 7.07678C4.28899 7.06849 4.34903 6.97396 4.41314 6.86667C4.47729 6.75939 4.5406 6.66711 4.55383 6.66161C4.56709 6.65609 4.57792 6.63247 4.57792 6.6091C4.57792 6.58569 4.59052 6.56657 4.60591 6.56657C4.6213 6.56657 4.64141 6.54292 4.65059 6.51405C4.65977 6.48518 4.69793 6.42777 4.73541 6.38651C4.8379 6.27367 4.99796 6.06522 4.99796 6.04457C4.99796 6.03458 5.02161 6.00181 5.05047 5.97174C5.07936 5.9417 5.19073 5.81713 5.298 5.69495C5.54696 5.4113 5.91318 5.04499 6.19677 4.79597C6.31891 4.68868 6.44346 4.57728 6.47349 4.54838C6.50355 4.51951 6.53631 4.49587 6.54631 4.49587C6.56695 4.49587 6.77535 4.33576 6.88816 4.23325C6.92942 4.19576 6.98678 4.15759 7.01568 4.14841C7.04457 4.13922 7.06818 4.11912 7.06818 4.10372C7.06818 4.08833 7.08729 4.07572 7.1107 4.07572C7.13407 4.07572 7.15768 4.06489 7.1632 4.05162C7.16869 4.03839 7.26095 3.97507 7.36821 3.91091C7.47547 3.84677 7.56998 3.78672 7.57826 3.77745C7.58651 3.76818 7.63716 3.737 7.69078 3.7081C7.74439 3.6792 7.83212 3.63196 7.88574 3.60306C7.93935 3.57416 7.99012 3.54148 7.99855 3.53041C8.00698 3.51933 8.05087 3.501 8.09609 3.48965C8.1413 3.47831 8.1783 3.45697 8.1783 3.44227C8.1783 3.42753 8.19672 3.4155 8.21922 3.4155C8.24175 3.4155 8.38244 3.35473 8.53188 3.28045C8.68133 3.20618 8.82411 3.14541 8.8492 3.14541C8.87431 3.14541 8.90254 3.13295 8.91193 3.11771C8.92135 3.10246 8.97236 3.08049 9.02525 3.06888C9.07815 3.05727 9.14212 3.03734 9.16741 3.02465C9.24869 2.98377 9.44887 2.90962 9.61845 2.85752C9.70921 2.82964 9.80423 2.7969 9.82961 2.78477C9.85502 2.77262 9.93603 2.75275 10.0096 2.7406C10.0833 2.72841 10.157 2.70834 10.1735 2.69594C10.19 2.68358 10.2643 2.66431 10.3385 2.65315C10.4128 2.64198 10.514 2.62074 10.5635 2.60588C11.0112 2.47171 12.2078 2.38207 12.9649 2.426C13.5537 2.46015 14.0161 2.50373 14.0568 2.52885C14.0723 2.53848 14.1771 2.55955 14.2895 2.57563C14.402 2.59175 14.575 2.62473 14.674 2.64892C14.773 2.67311 14.9199 2.70843 15.0006 2.72739L15.1471 2.76185L16.1016 1.80746C17.1436 0.765626 17.1022 0.825256 16.8342 0.750651C16.7682 0.732255 16.6467 0.697022 16.5642 0.672354C16.4053 0.624818 16.1906 0.562216 15.9191 0.48428C15.8283 0.458231 15.7001 0.42573 15.6341 0.412015C15.5681 0.398331 15.423 0.36604 15.3116 0.340261C14.7028 0.199363 14.3289 0.130309 13.9239 0.0839735C13.7919 0.0688784 13.5624 0.0427695 13.4138 0.0259638C13.1104 -0.00836789 11.8158 -0.00875807 11.4936 0.0254236ZM16.4592 8.26215C13.6291 11.0929 11.3052 13.4089 11.2948 13.4089C11.2844 13.4089 10.4525 12.5851 9.44626 11.5783C8.43998 10.5714 7.59924 9.74765 7.57787 9.74765C7.55654 9.74765 7.16755 10.1201 6.71348 10.5753L5.88786 11.403L8.59174 14.1075L11.2957 16.812L17.3037 10.8026L23.3117 4.79315L22.4734 3.95427C22.0123 3.49289 21.6283 3.1154 21.6199 3.1154C21.6115 3.1154 19.2892 5.43144 16.4592 8.26215Z" fill="#0ACCBA"/>
</svg>
