<svg width="28" height="28" viewBox="0 0 28 28" fill="none" xmlns="http://www.w3.org/2000/svg">
<g id="Icon/ Business">
<circle id="Ellipse 405" cx="13.9998" cy="14.0001" r="2.33333" fill="white"/>
<path id="Vector" d="M14.0002 13.9999L25.6668 2.33325M21.0002 13.9999C21.0002 17.8659 17.8662 20.9999 14.0002 20.9999C10.1342 20.9999 7.00016 17.8659 7.00016 13.9999C7.00016 10.1339 10.1342 6.99992 14.0002 6.99992C17.8662 6.99992 21.0002 10.1339 21.0002 13.9999ZM25.6668 13.9999C25.6668 20.4432 20.4435 25.6666 14.0002 25.6666C7.55684 25.6666 2.3335 20.4432 2.3335 13.9999C2.3335 7.5566 7.55684 2.33325 14.0002 2.33325C20.4435 2.33325 25.6668 7.5566 25.6668 13.9999Z" stroke="white" stroke-width="1.5" stroke-linecap="round"/>
</g>
</svg>
