<svg width="26" height="26" viewBox="0 0 26 26" fill="none" xmlns="http://www.w3.org/2000/svg">
<g id="Icon/ User 4" opacity="0.5">
<path id="Vector" d="M16.5832 7.58333C16.5832 9.56235 14.9789 11.1667 12.9998 11.1667V12.6667C15.8073 12.6667 18.0832 10.3908 18.0832 7.58333H16.5832ZM12.9998 11.1667C11.0208 11.1667 9.4165 9.56235 9.4165 7.58333H7.9165C7.9165 10.3908 10.1924 12.6667 12.9998 12.6667V11.1667ZM9.4165 7.58333C9.4165 5.60431 11.0208 4 12.9998 4V2.5C10.1924 2.5 7.9165 4.77589 7.9165 7.58333H9.4165ZM12.9998 4C14.9789 4 16.5832 5.60431 16.5832 7.58333H18.0832C18.0832 4.77589 15.8073 2.5 12.9998 2.5V4ZM19.8332 18.9583C19.8332 19.5683 19.3192 20.3223 18.0267 20.9686C16.7789 21.5925 15.0027 22 12.9998 22V23.5C15.1851 23.5 17.2006 23.0587 18.6975 22.3103C20.1495 21.5842 21.3332 20.4425 21.3332 18.9583H19.8332ZM12.9998 22C10.9969 22 9.22075 21.5925 7.97302 20.9686C6.68044 20.3223 6.1665 19.5683 6.1665 18.9583H4.6665C4.6665 20.4425 5.85016 21.5842 7.3022 22.3103C8.7991 23.0587 10.8146 23.5 12.9998 23.5V22ZM6.1665 18.9583C6.1665 18.3484 6.68044 17.5943 7.97302 16.948C9.22075 16.3242 10.9969 15.9167 12.9998 15.9167V14.4167C10.8146 14.4167 8.7991 14.8579 7.3022 15.6064C5.85016 16.3324 4.6665 17.4742 4.6665 18.9583H6.1665ZM12.9998 15.9167C15.0027 15.9167 16.7789 16.3242 18.0267 16.948C19.3192 17.5943 19.8332 18.3484 19.8332 18.9583H21.3332C21.3332 17.4742 20.1495 16.3324 18.6975 15.6064C17.2006 14.8579 15.1851 14.4167 12.9998 14.4167V15.9167Z" fill="white"/>
</g>
</svg>
